<svg width="51" height="51" viewBox="0 0 51 51" fill="none" xmlns="http://www.w3.org/2000/svg">
<circle cx="25.5" cy="25.5" r="25.5" fill="#525A55"/>
<path d="M33.8333 33.8334L29.6145 29.6146L33.8333 33.8334ZM29.6145 29.6146C30.2917 28.9375 30.8288 28.1336 31.1953 27.2489C31.5617 26.3642 31.7503 25.416 31.7503 24.4584C31.7503 23.5008 31.5617 22.5525 31.1953 21.6678C30.8288 20.7831 30.2917 19.9792 29.6145 19.3021C28.9374 18.625 28.1336 18.0879 27.2488 17.7214C26.3641 17.3549 25.4159 17.1663 24.4583 17.1663C23.5007 17.1663 22.5525 17.3549 21.6678 17.7214C20.783 18.0879 19.9792 18.625 19.302 19.3021C17.9345 20.6696 17.1663 22.5244 17.1663 24.4584C17.1663 26.3923 17.9345 28.2471 19.302 29.6146C20.6696 30.9821 22.5243 31.7504 24.4583 31.7504C26.3923 31.7504 28.247 30.9821 29.6145 29.6146V29.6146Z" stroke="white" stroke-width="3" stroke-linecap="round" stroke-linejoin="round"/>
</svg>
